<svg width="109" height="101" viewBox="0 0 109 101" fill="none" xmlns="http://www.w3.org/2000/svg">
<path d="M30.5034 17.5701C21.9734 23.1901 13.4434 29.2001 7.39343 37.4201C1.34343 45.6501 -1.92657 56.5501 1.21343 66.2601C4.64343 76.8901 14.7334 83.8701 24.7934 88.7101C34.9834 93.6001 45.8234 97.1401 56.9334 99.2101C68.4534 101.34 81.2734 101.63 90.8634 94.9001C99.2134 89.0401 103.513 78.9601 105.993 69.0701C108.783 57.9201 109.783 46.1401 107.293 34.9101C104.813 23.6901 98.6134 13.0501 89.1134 6.57012C78.1634 -0.909876 63.2134 -2.10988 51.2034 3.52012C50.1134 4.04012 32.5034 15.9701 30.5034 17.5701Z" fill="white"/>
</svg>
