<svg width="49" height="55" viewBox="0 0 49 55" fill="none" xmlns="http://www.w3.org/2000/svg">
<path d="M0 23.2817C1 20.1417 3.25 17.5717 5.59 15.2617C9.48 11.4117 13.8 8.01173 18.45 5.14173C22.33 2.74173 26.53 0.681729 31.06 0.131729C35.58 -0.418271 40.49 0.731729 43.67 4.00173C46.52 6.92173 47.65 11.1017 48.21 15.1417C49.21 22.3917 48.73 29.7617 48.8 37.0817C48.83 40.4817 48.92 44.1017 47.12 46.9817C45.15 50.1217 41.4 51.6017 37.85 52.6617C35.27 53.4417 32.62 54.1117 29.93 54.0717C21.73 53.9317 15.18 47.3717 10.16 40.8817C8.1 38.2151 6.13 35.4851 4.25 32.6917C1.95 29.2817 0.11 27.3917 0 23.2817Z" fill="white"/>
</svg>
